<?xml version="1.0" encoding="UTF-8" standalone="no"?>
<svg
   width="24"
   height="24"
   version="1.1"
   id="svg8"
   sodipodi:docname="emblem-shared.svg"
   inkscape:version="1.2.2 (1:1.2.2+202212051550+b0a8486541)"
   xmlns:inkscape="http://www.inkscape.org/namespaces/inkscape"
   xmlns:sodipodi="http://sodipodi.sourceforge.net/DTD/sodipodi-0.dtd"
   xmlns="http://www.w3.org/2000/svg"
   xmlns:svg="http://www.w3.org/2000/svg"
   xmlns:rdf="http://www.w3.org/1999/02/22-rdf-syntax-ns#"
   xmlns:cc="http://creativecommons.org/ns#"
   xmlns:dc="http://purl.org/dc/elements/1.1/">
  <metadata
     id="metadata14">
    <rdf:RDF>
      <cc:Work
         rdf:about="">
        <dc:format>image/svg+xml</dc:format>
        <dc:type
           rdf:resource="http://purl.org/dc/dcmitype/StillImage" />
      </cc:Work>
    </rdf:RDF>
  </metadata>
  <defs
     id="defs12">
    <inkscape:path-effect
       effect="powerclip"
       id="path-effect166"
       is_visible="true"
       lpeversion="1"
       inverse="true"
       flatten="false"
       hide_clip="false"
       message="Use fill-rule evenodd on &lt;b&gt;fill and stroke&lt;/b&gt; dialog if no flatten result after convert clip to paths." />
    <clipPath
       clipPathUnits="userSpaceOnUse"
       id="clipPath162">
      <circle
         style="display:none;fill:#909295;stroke-width:1"
         cx="24"
         cy="24"
         r="20"
         id="circle164" />
    </clipPath>
    <filter
       style="color-interpolation-filters:sRGB;"
       inkscape:label="Drop Shadow"
       id="filter2454"
       x="-0.03002051"
       y="-0.029486284"
       width="1.0975667"
       height="1.0958304">
      <feFlood
         flood-opacity="0.341176"
         flood-color="rgb(0,0,0)"
         result="flood"
         id="feFlood2444" />
      <feComposite
         in="flood"
         in2="SourceGraphic"
         operator="in"
         result="composite1"
         id="feComposite2446" />
      <feGaussianBlur
         in="composite1"
         stdDeviation="0.5"
         result="blur"
         id="feGaussianBlur2448" />
      <feOffset
         dx="1.5"
         dy="1.5"
         result="offset"
         id="feOffset2450" />
      <feComposite
         in="SourceGraphic"
         in2="offset"
         operator="over"
         result="composite2"
         id="feComposite2452" />
    </filter>
    <filter
       style="color-interpolation-filters:sRGB"
       inkscape:label="Drop Shadow"
       id="filter933"
       x="-0.084647245"
       y="-0.085141154"
       width="1.2089729"
       height="1.2101922">
      <feFlood
         flood-opacity="0.341176"
         flood-color="rgb(0,0,0)"
         result="flood"
         id="feFlood923" />
      <feComposite
         in="flood"
         in2="SourceGraphic"
         operator="in"
         result="composite1"
         id="feComposite925" />
      <feGaussianBlur
         in="composite1"
         stdDeviation="0.5"
         result="blur"
         id="feGaussianBlur927" />
      <feOffset
         dx="1.5"
         dy="1.5"
         result="offset"
         id="feOffset929" />
      <feComposite
         in="SourceGraphic"
         in2="offset"
         operator="over"
         result="composite2"
         id="feComposite931" />
    </filter>
  </defs>
  <sodipodi:namedview
     pagecolor="#f5f7fa"
     bordercolor="#666666"
     borderopacity="1"
     objecttolerance="10"
     gridtolerance="10"
     guidetolerance="10"
     inkscape:pageopacity="0"
     inkscape:pageshadow="2"
     inkscape:window-width="1543"
     inkscape:window-height="950"
     id="namedview10"
     showgrid="false"
     inkscape:zoom="24.306796"
     inkscape:cx="12.321657"
     inkscape:cy="12.054242"
     inkscape:window-x="280"
     inkscape:window-y="94"
     inkscape:window-maximized="0"
     inkscape:current-layer="g6"
     inkscape:document-rotation="0"
     inkscape:pagecheckerboard="0"
     inkscape:showpageshadow="2"
     inkscape:deskcolor="#d1d1d1" />
  <g
     transform="scale(0.5)"
     id="g6">
    <ellipse
       style="fill:#333333;fill-opacity:1;stroke:#ffffff;stroke-width:4;stroke-dasharray:none;stroke-opacity:0.5;filter:url(#filter933)"
       id="path921"
       cx="23.949146"
       cy="24.047064"
       rx="18.901974"
       ry="18.792322" />
    <path
       style="fill:#ffffff;stroke-width:1.91664"
       d="m 27.968774,13.588466 a 3.83328,3.83328 0 0 0 -3.138881,1.912903 3.83328,3.83328 0 0 0 -0.370605,2.940508 l -5.074209,2.931116 a 3.83328,3.83328 0 0 0 -2.735044,-1.149026 3.83328,3.83328 0 0 0 -3.83328,3.83328 3.83328,3.83328 0 0 0 3.83328,3.83328 3.83328,3.83328 0 0 0 2.732747,-1.149217 l 5.07421,2.931118 a 3.83328,3.83328 0 0 0 0.371828,2.940126 3.83328,3.83328 0 0 0 5.237219,1.403939 3.83328,3.83328 0 0 0 1.403939,-5.237219 3.83328,3.83328 0 0 0 -5.237219,-1.402023 3.83328,3.83328 0 0 0 -0.818406,0.634408 l -5.075265,-2.929584 a 3.83328,3.83328 0 0 0 0.143748,-1.025403 3.83328,3.83328 0 0 0 -0.139914,-1.025402 l 5.074211,-2.929199 a 3.83328,3.83328 0 0 0 0.815531,0.634406 3.83328,3.83328 0 0 0 5.237218,-1.40202 3.83328,3.83328 0 0 0 -1.403938,-5.237219 3.83328,3.83328 0 0 0 -2.097763,-0.508868 z"
       id="path4" />
  </g>
</svg>
