<?xml version="1.0" encoding="UTF-8" standalone="no"?>
<svg
   width="16"
   height="16"
   version="1.1"
   id="svg7"
   sodipodi:docname="folder-publicshare.svg"
   inkscape:version="1.3.2 (091e20ef0f, 2023-11-25)"
   xmlns:inkscape="http://www.inkscape.org/namespaces/inkscape"
   xmlns:sodipodi="http://sodipodi.sourceforge.net/DTD/sodipodi-0.dtd"
   xmlns:xlink="http://www.w3.org/1999/xlink"
   xmlns="http://www.w3.org/2000/svg"
   xmlns:svg="http://www.w3.org/2000/svg"
   xmlns:rdf="http://www.w3.org/1999/02/22-rdf-syntax-ns#"
   xmlns:cc="http://creativecommons.org/ns#"
   xmlns:dc="http://purl.org/dc/elements/1.1/">
  <metadata
     id="metadata11">
    <rdf:RDF>
      <cc:Work
         rdf:about="">
        <dc:format>image/svg+xml</dc:format>
        <dc:type
           rdf:resource="http://purl.org/dc/dcmitype/StillImage" />
      </cc:Work>
    </rdf:RDF>
  </metadata>
  <sodipodi:namedview
     pagecolor="#c68136"
     bordercolor="#666666"
     borderopacity="1"
     objecttolerance="10"
     gridtolerance="10"
     guidetolerance="10"
     inkscape:pageopacity="0"
     inkscape:pageshadow="2"
     inkscape:window-width="1834"
     inkscape:window-height="1012"
     id="namedview9"
     showgrid="false"
     inkscape:zoom="12.890625"
     inkscape:cx="7.4472727"
     inkscape:cy="7.9127273"
     inkscape:window-x="86"
     inkscape:window-y="32"
     inkscape:window-maximized="1"
     inkscape:current-layer="g1"
     inkscape:document-rotation="0"
     inkscape:showpageshadow="2"
     inkscape:pagecheckerboard="0"
     inkscape:deskcolor="#c68136" />
  <defs
     id="defs3">
    <style
       id="current-color-scheme"
       type="text/css">
   .ColorScheme-Text { color:#444444; } .ColorScheme-Highlight { color:#4285f4; } .ColorScheme-NeutralText { color:#ff9800; } .ColorScheme-PositiveText { color:#4caf50; } .ColorScheme-NegativeText { color:#f44336; }
  </style>
    <linearGradient
       inkscape:collect="always"
       xlink:href="#linearGradient5"
       id="linearGradient2"
       x1="8.5625448"
       y1="13.590168"
       x2="8.5183554"
       y2="9.2323666"
       gradientUnits="userSpaceOnUse" />
    <linearGradient
       id="linearGradient5"
       inkscape:collect="always">
      <stop
         style="stop-color:#f4e3d7;stop-opacity:1;"
         offset="0"
         id="stop5" />
      <stop
         style="stop-color:#e5e5e5;stop-opacity:1;"
         offset="1"
         id="stop6" />
    </linearGradient>
  </defs>
  <g
     id="g1"
     transform="matrix(3.0614776,0,0,3.0614776,-18.011568,-26.661558)">
    <path
       style="color:#000000;display:inline;overflow:visible;visibility:visible;fill:url(#linearGradient2);fill-opacity:0.971119;fill-rule:nonzero;stroke:none;stroke-width:0.32664;stroke-linecap:butt;stroke-linejoin:miter;stroke-miterlimit:4;stroke-dasharray:none;stroke-dashoffset:0;stroke-opacity:0.3;marker:none;enable-background:accumulate"
       id="path18808-8"
       d="m 9.5799731,9.2278143 c -0.4260935,0 -0.7715101,0.3454168 -0.7715101,0.7715098 0,0.057949 0.011999,0.1144699 0.02411,0.1687679 l -1.0487715,0.608769 c -0.1368267,-0.12367 -0.3193996,-0.198905 -0.5183581,-0.198905 -0.4260931,0 -0.7715099,0.345417 -0.7715099,0.77151 0,0.426093 0.3454168,0.77151 0.7715099,0.77151 0.1989585,0 0.3815314,-0.07523 0.5183581,-0.198906 l 1.048771,0.60877 c -0.012111,0.0543 -0.02411,0.110819 -0.02411,0.168768 0,0.426093 0.3454168,0.77151 0.7715101,0.77151 0.4260904,0 0.7715084,-0.345417 0.7715084,-0.77151 0,-0.426093 -0.345418,-0.77151 -0.7715084,-0.77151 -0.1927783,0 -0.3710712,0.06995 -0.5063035,0.18685 l -1.0547982,-0.60877 c 0.010276,-0.05022 0.018083,-0.103451 0.018083,-0.156712 0,-0.05325 -0.00781,-0.10649 -0.018083,-0.156713 l 1.0547986,-0.608769 c 0.1352323,0.116892 0.3135251,0.18685 0.5063036,0.18685 0.4260909,0 0.7715089,-0.345417 0.7715089,-0.7715099 0,-0.426093 -0.345418,-0.7715098 -0.7715089,-0.7715098 z" />
  </g>
</svg>
