<?xml version="1.0" encoding="UTF-8" standalone="no"?>
<svg
   width="16"
   height="16"
   version="1.1"
   id="svg7"
   sodipodi:docname="folder-download.svg"
   inkscape:version="1.3.2 (091e20ef0f, 2023-11-25)"
   xmlns:inkscape="http://www.inkscape.org/namespaces/inkscape"
   xmlns:sodipodi="http://sodipodi.sourceforge.net/DTD/sodipodi-0.dtd"
   xmlns:xlink="http://www.w3.org/1999/xlink"
   xmlns="http://www.w3.org/2000/svg"
   xmlns:svg="http://www.w3.org/2000/svg"
   xmlns:rdf="http://www.w3.org/1999/02/22-rdf-syntax-ns#"
   xmlns:cc="http://creativecommons.org/ns#"
   xmlns:dc="http://purl.org/dc/elements/1.1/">
  <metadata
     id="metadata11">
    <rdf:RDF>
      <cc:Work
         rdf:about="">
        <dc:format>image/svg+xml</dc:format>
        <dc:type
           rdf:resource="http://purl.org/dc/dcmitype/StillImage" />
      </cc:Work>
    </rdf:RDF>
  </metadata>
  <sodipodi:namedview
     pagecolor="#c68136"
     bordercolor="#666666"
     borderopacity="1"
     objecttolerance="10"
     gridtolerance="10"
     guidetolerance="10"
     inkscape:pageopacity="0"
     inkscape:pageshadow="2"
     inkscape:window-width="1834"
     inkscape:window-height="1012"
     id="namedview9"
     showgrid="false"
     inkscape:zoom="25.78125"
     inkscape:cx="7.4472727"
     inkscape:cy="7.9515152"
     inkscape:window-x="86"
     inkscape:window-y="32"
     inkscape:window-maximized="1"
     inkscape:current-layer="g1"
     inkscape:document-rotation="0"
     inkscape:showpageshadow="2"
     inkscape:pagecheckerboard="0"
     inkscape:deskcolor="#c68136" />
  <defs
     id="defs3">
    <style
       id="current-color-scheme"
       type="text/css">
   .ColorScheme-Text { color:#444444; } .ColorScheme-Highlight { color:#4285f4; } .ColorScheme-NeutralText { color:#ff9800; } .ColorScheme-PositiveText { color:#4caf50; } .ColorScheme-NegativeText { color:#f44336; }
  </style>
    <linearGradient
       inkscape:collect="always"
       xlink:href="#linearGradient5"
       id="linearGradient2"
       x1="8.4987516"
       y1="13.368808"
       x2="8.4842482"
       y2="8.6535025"
       gradientUnits="userSpaceOnUse"
       gradientTransform="translate(-0.00598453,0.1519524)" />
    <linearGradient
       id="linearGradient5"
       inkscape:collect="always">
      <stop
         style="stop-color:#f4e3d7;stop-opacity:1;"
         offset="0"
         id="stop5" />
      <stop
         style="stop-color:#e5e5e5;stop-opacity:1;"
         offset="1"
         id="stop6" />
    </linearGradient>
  </defs>
  <g
     id="g1"
     transform="matrix(3.0614776,0,0,3.0614776,-17.800142,-26.044441)">
    <path
       id="path883"
       style="fill:url(#linearGradient2);stroke:none;stroke-width:0.32664;stroke-linejoin:round;stroke-dasharray:none;stroke-opacity:0.3"
       d="m 8.4605153,8.8178394 c -1.2623853,0 -2.2913842,1.0289989 -2.2913842,2.2913846 0,1.262385 1.0289989,2.291384 2.2913842,2.291384 1.2623856,0 2.2913837,-1.028999 2.2913837,-2.291384 0,-1.2623856 -1.0289981,-2.2913846 -2.2913837,-2.2913846 z m 0,0.5251091 c 0.9785955,0 1.7662737,0.7876795 1.7662737,1.7662755 0,0.978595 -0.7876782,1.766274 -1.7662737,1.766274 -0.9785957,0 -1.7662754,-0.787679 -1.7662754,-1.766274 0,-0.978596 0.7876797,-1.7662755 1.7662754,-1.7662755 z M 8.2695665,9.9635317 c -0.1057859,0 -0.1909486,0.085163 -0.1909486,0.1909483 v 0.954744 H 7.568054 c -0.1380373,1.45e-4 -0.2091912,0.16287 -0.1144949,0.261808 l 0.8924616,0.930876 c 0.062149,0.06472 0.1668406,0.06472 0.2289892,0 l 0.8924614,-0.930876 c 0.094698,-0.09895 0.023543,-0.261661 -0.1144947,-0.261808 H 8.8424127 V 10.15448 c 0,-0.105786 -0.085164,-0.1909482 -0.1909487,-0.1909482 z" />
  </g>
</svg>
