<?xml version="1.0" encoding="UTF-8" standalone="no"?>
<svg
   width="24"
   height="24"
   version="1.1"
   id="svg8"
   sodipodi:docname="emblem-web.svg"
   inkscape:version="1.2.2 (1:1.2.2+202212051550+b0a8486541)"
   xmlns:inkscape="http://www.inkscape.org/namespaces/inkscape"
   xmlns:sodipodi="http://sodipodi.sourceforge.net/DTD/sodipodi-0.dtd"
   xmlns="http://www.w3.org/2000/svg"
   xmlns:svg="http://www.w3.org/2000/svg"
   xmlns:rdf="http://www.w3.org/1999/02/22-rdf-syntax-ns#"
   xmlns:cc="http://creativecommons.org/ns#"
   xmlns:dc="http://purl.org/dc/elements/1.1/">
  <metadata
     id="metadata14">
    <rdf:RDF>
      <cc:Work
         rdf:about="">
        <dc:format>image/svg+xml</dc:format>
        <dc:type
           rdf:resource="http://purl.org/dc/dcmitype/StillImage" />
      </cc:Work>
    </rdf:RDF>
  </metadata>
  <defs
     id="defs12">
    <inkscape:path-effect
       effect="powerclip"
       id="path-effect166"
       is_visible="true"
       lpeversion="1"
       inverse="true"
       flatten="false"
       hide_clip="false"
       message="Use fill-rule evenodd on &lt;b&gt;fill and stroke&lt;/b&gt; dialog if no flatten result after convert clip to paths." />
    <clipPath
       clipPathUnits="userSpaceOnUse"
       id="clipPath162">
      <circle
         style="display:none;fill:#909295;stroke-width:1"
         cx="24"
         cy="24"
         r="20"
         id="circle164" />
    </clipPath>
    <filter
       style="color-interpolation-filters:sRGB;"
       inkscape:label="Drop Shadow"
       id="filter1190"
       x="-0.03002051"
       y="-0.029486284"
       width="1.0975667"
       height="1.0958304">
      <feFlood
         flood-opacity="0.341176"
         flood-color="rgb(0,0,0)"
         result="flood"
         id="feFlood1180" />
      <feComposite
         in="flood"
         in2="SourceGraphic"
         operator="in"
         result="composite1"
         id="feComposite1182" />
      <feGaussianBlur
         in="composite1"
         stdDeviation="0.5"
         result="blur"
         id="feGaussianBlur1184" />
      <feOffset
         dx="1.5"
         dy="1.5"
         result="offset"
         id="feOffset1186" />
      <feComposite
         in="SourceGraphic"
         in2="offset"
         operator="over"
         result="composite2"
         id="feComposite1188" />
    </filter>
    <filter
       style="color-interpolation-filters:sRGB"
       inkscape:label="Drop Shadow"
       id="filter933"
       x="-0.084647245"
       y="-0.085141154"
       width="1.2089729"
       height="1.2101922">
      <feFlood
         flood-opacity="0.341176"
         flood-color="rgb(0,0,0)"
         result="flood"
         id="feFlood923" />
      <feComposite
         in="flood"
         in2="SourceGraphic"
         operator="in"
         result="composite1"
         id="feComposite925" />
      <feGaussianBlur
         in="composite1"
         stdDeviation="0.5"
         result="blur"
         id="feGaussianBlur927" />
      <feOffset
         dx="1.5"
         dy="1.5"
         result="offset"
         id="feOffset929" />
      <feComposite
         in="SourceGraphic"
         in2="offset"
         operator="over"
         result="composite2"
         id="feComposite931" />
    </filter>
  </defs>
  <sodipodi:namedview
     pagecolor="#f5f7fa"
     bordercolor="#666666"
     borderopacity="1"
     objecttolerance="10"
     gridtolerance="10"
     guidetolerance="10"
     inkscape:pageopacity="0"
     inkscape:pageshadow="2"
     inkscape:window-width="1543"
     inkscape:window-height="950"
     id="namedview10"
     showgrid="false"
     inkscape:zoom="24.306796"
     inkscape:cx="12.321657"
     inkscape:cy="12.054242"
     inkscape:window-x="280"
     inkscape:window-y="94"
     inkscape:window-maximized="0"
     inkscape:current-layer="g6"
     inkscape:document-rotation="0"
     inkscape:pagecheckerboard="0"
     inkscape:showpageshadow="2"
     inkscape:deskcolor="#d1d1d1" />
  <g
     transform="scale(0.5)"
     id="g6">
    <ellipse
       style="fill:#333333;fill-opacity:1;stroke:#ffffff;stroke-width:4;stroke-dasharray:none;stroke-opacity:0.5;filter:url(#filter933)"
       id="path921"
       cx="23.949146"
       cy="24.047064"
       rx="18.901974"
       ry="18.792322" />
    <path
       style="fill:#ffffff;fill-rule:evenodd;stroke-width:1.72498"
       d="m 17.966976,13.540313 c -4.426339,2.543159 -6.62005,7.457276 -5.910498,12.18929 0.03249,0.242764 0.07762,0.484605 0.12549,0.726253 0.01067,0.04957 0.01856,0.09917 0.0298,0.14871 0.253465,1.200011 0.685698,2.380855 1.334398,3.49899 3.317933,5.71897 10.708252,7.671946 16.480568,4.355456 4.384587,-2.519174 6.583386,-7.363711 5.936951,-12.054116 -1.56e-4,-0.0012 -3.3e-4,-0.0023 -1.88e-4,-0.0037 -0.03988,-0.325694 -0.101859,-0.649311 -0.169358,-0.972961 -0.25261,-1.211458 -0.692194,-2.404289 -1.34665,-3.532344 -3.317197,-5.717683 -10.709451,-7.671239 -16.480566,-4.355436 z m 0.185724,2.051192 2.024686,3.489862 c -1.019491,0.539184 -2.03588,0.983288 -3.014856,1.325304 -0.04604,-0.384158 -0.07905,-0.760641 -0.08429,-1.118195 -0.02422,-1.648398 0.368835,-2.911151 1.074512,-3.697019 z m 1.528399,-0.801007 c 0.08602,-0.03224 0.171169,-0.06911 0.25746,-0.09972 0.985198,-0.110968 2.171416,0.195017 3.464933,0.963459 0.302847,0.179922 0.6081,0.39202 0.913622,0.618623 -0.780638,0.674748 -1.671454,1.333404 -2.646529,1.946734 l -1.989462,-3.429138 z m -4.269981,3.405941 c -0.03702,0.367095 -0.06208,0.739419 -0.05647,1.123872 0.0076,0.511797 0.05668,1.042651 0.131862,1.582666 -0.511327,0.12425 -0.999621,0.212893 -1.467952,0.274545 0.297244,-1.055641 0.768296,-2.060866 1.392543,-2.981058 z m 8.166687,-4.395204 c 0.502318,-0.07233 0.903064,-0.100802 1.305165,-0.128958 0.558266,0.04652 1.110881,0.136497 1.652229,0.271335 -0.282208,0.371905 -0.599256,0.748631 -0.957845,1.126915 -0.423817,-0.326577 -0.851875,-0.628538 -1.284593,-0.88565 -0.236268,-0.14038 -0.475276,-0.26485 -0.715032,-0.383677 z m 4.58263,0.699317 c 1.700019,0.738371 3.209638,1.933734 4.327115,3.53999 l -2.814499,1.617073 c -0.840607,-1.32265 -1.788791,-2.485729 -2.795499,-3.459732 0.491757,-0.52425 0.931686,-1.054353 1.306688,-1.585742 -0.0048,-0.04026 -0.01483,-0.07553 -0.02387,-0.111624 z M 13.689642,22.9459 c 0.68004,-0.06093 1.395566,-0.186391 2.132039,-0.361049 0.344602,1.345265 0.87993,2.733318 1.60526,4.108875 l -2.804231,1.611176 c -0.817652,-1.721233 -1.110449,-3.568184 -0.93299,-5.359005 z m 11.949076,-5.548264 c 0.899133,0.86624 1.765373,1.916574 2.537931,3.11979 l -3.88014,2.22934 -1.767112,-3.04589 c 1.149715,-0.717479 2.195624,-1.493639 3.109292,-2.303252 z m -8.155305,4.714566 c 1.160625,-0.389635 2.356486,-0.911294 3.552551,-1.549394 l 1.765425,3.042981 -3.87864,2.22848 c -0.65633,-1.258759 -1.134682,-2.521511 -1.439251,-3.722096 z m -2.002078,7.674016 2.804231,-1.611177 c 0.857357,1.348935 1.826401,2.533744 2.85559,3.519693 -0.509188,0.533846 -0.964166,1.074338 -1.353205,1.616329 -1.690826,-0.737686 -3.193012,-1.927475 -4.306692,-3.524771 z m 4.300565,-2.470897 3.878641,-2.228478 1.825838,3.147112 c -1.143614,0.7056 -2.18789,1.46804 -3.101671,2.26609 -0.9226,-0.878314 -1.811461,-1.952152 -2.602857,-3.184724 z m 5.373477,-3.087339 3.880141,-2.229339 c 0.681417,1.306998 1.174221,2.619034 1.476811,3.860638 -1.152211,0.381568 -2.340286,0.891842 -3.529449,1.518754 l -1.827526,-3.150022 z m 5.376398,-3.089017 2.8145,-1.617076 c 0.843018,1.779063 1.124021,3.692267 0.906566,5.538091 -0.0055,-0.0029 -0.0088,-0.0083 -0.01432,-0.01104 -0.659288,0.05834 -1.351032,0.175644 -2.063831,0.341147 -0.342919,-1.3892 -0.892351,-2.827528 -1.642999,-4.251098 z m -4.186162,8.576014 1.963454,3.384316 c -1.036538,0.214546 -2.330827,-0.07478 -3.752878,-0.919557 -0.276993,-0.164564 -0.555295,-0.356042 -0.834738,-0.559814 0.778348,-0.661987 1.660242,-1.305184 2.624109,-1.904933 z m 1.496523,-0.85595 c 1.006283,-0.526296 2.008382,-0.960062 2.973016,-1.293548 0.03632,0.335981 0.06177,0.664994 0.06644,0.980066 0.02421,1.648598 -0.371656,2.908694 -1.077623,3.694926 l -1.96177,-3.381404 z M 22.44768,32.81269 c 0.402497,0.306433 0.808805,0.592717 1.219082,0.83647 0.322564,0.191636 0.649424,0.355724 0.977847,0.504542 -1.058531,0.07173 -2.113303,-0.01707 -3.131915,-0.261978 0.28103,-0.356918 0.585504,-0.717557 0.934945,-1.079052 z m 10.044133,-5.736162 c 0.485921,-0.116038 0.949076,-0.195278 1.395911,-0.254359 -0.297901,0.987395 -0.745386,1.928259 -1.331792,2.793787 0.03395,-0.360444 0.05491,-0.726177 0.04938,-1.1025 -0.0067,-0.465299 -0.05071,-0.948009 -0.113502,-1.436967 z"
       id="path4-3" />
  </g>
</svg>
