<?xml version="1.0" encoding="UTF-8" standalone="no"?>
<svg
   width="24"
   height="24"
   version="1.1"
   id="svg8"
   sodipodi:docname="emblem-mail.svg"
   inkscape:version="1.2.2 (1:1.2.2+202212051550+b0a8486541)"
   xmlns:inkscape="http://www.inkscape.org/namespaces/inkscape"
   xmlns:sodipodi="http://sodipodi.sourceforge.net/DTD/sodipodi-0.dtd"
   xmlns="http://www.w3.org/2000/svg"
   xmlns:svg="http://www.w3.org/2000/svg"
   xmlns:rdf="http://www.w3.org/1999/02/22-rdf-syntax-ns#"
   xmlns:cc="http://creativecommons.org/ns#"
   xmlns:dc="http://purl.org/dc/elements/1.1/">
  <metadata
     id="metadata14">
    <rdf:RDF>
      <cc:Work
         rdf:about="">
        <dc:format>image/svg+xml</dc:format>
        <dc:type
           rdf:resource="http://purl.org/dc/dcmitype/StillImage" />
      </cc:Work>
    </rdf:RDF>
  </metadata>
  <defs
     id="defs12">
    <inkscape:path-effect
       effect="powerclip"
       id="path-effect166"
       is_visible="true"
       lpeversion="1"
       inverse="true"
       flatten="false"
       hide_clip="false"
       message="Use fill-rule evenodd on &lt;b&gt;fill and stroke&lt;/b&gt; dialog if no flatten result after convert clip to paths." />
    <clipPath
       clipPathUnits="userSpaceOnUse"
       id="clipPath162">
      <circle
         style="display:none;fill:#909295;stroke-width:1"
         cx="24"
         cy="24"
         r="20"
         id="circle164" />
    </clipPath>
    <filter
       style="color-interpolation-filters:sRGB;"
       inkscape:label="Drop Shadow"
       id="filter303"
       x="-0.03002051"
       y="-0.029486284"
       width="1.0975667"
       height="1.0958304">
      <feFlood
         flood-opacity="0.341176"
         flood-color="rgb(0,0,0)"
         result="flood"
         id="feFlood293" />
      <feComposite
         in="flood"
         in2="SourceGraphic"
         operator="in"
         result="composite1"
         id="feComposite295" />
      <feGaussianBlur
         in="composite1"
         stdDeviation="0.5"
         result="blur"
         id="feGaussianBlur297" />
      <feOffset
         dx="1.5"
         dy="1.5"
         result="offset"
         id="feOffset299" />
      <feComposite
         in="SourceGraphic"
         in2="offset"
         operator="over"
         result="composite2"
         id="feComposite301" />
    </filter>
    <filter
       style="color-interpolation-filters:sRGB"
       inkscape:label="Drop Shadow"
       id="filter933"
       x="-0.084647245"
       y="-0.085141154"
       width="1.2089729"
       height="1.2101922">
      <feFlood
         flood-opacity="0.341176"
         flood-color="rgb(0,0,0)"
         result="flood"
         id="feFlood923" />
      <feComposite
         in="flood"
         in2="SourceGraphic"
         operator="in"
         result="composite1"
         id="feComposite925" />
      <feGaussianBlur
         in="composite1"
         stdDeviation="0.5"
         result="blur"
         id="feGaussianBlur927" />
      <feOffset
         dx="1.5"
         dy="1.5"
         result="offset"
         id="feOffset929" />
      <feComposite
         in="SourceGraphic"
         in2="offset"
         operator="over"
         result="composite2"
         id="feComposite931" />
    </filter>
  </defs>
  <sodipodi:namedview
     pagecolor="#f5f7fa"
     bordercolor="#666666"
     borderopacity="1"
     objecttolerance="10"
     gridtolerance="10"
     guidetolerance="10"
     inkscape:pageopacity="0"
     inkscape:pageshadow="2"
     inkscape:window-width="1543"
     inkscape:window-height="950"
     id="namedview10"
     showgrid="false"
     inkscape:zoom="24.306796"
     inkscape:cx="12.321657"
     inkscape:cy="12.054242"
     inkscape:window-x="280"
     inkscape:window-y="94"
     inkscape:window-maximized="0"
     inkscape:current-layer="g6"
     inkscape:document-rotation="0"
     inkscape:pagecheckerboard="0"
     inkscape:showpageshadow="2"
     inkscape:deskcolor="#d1d1d1" />
  <g
     transform="scale(0.5)"
     id="g6">
    <ellipse
       style="fill:#333333;fill-opacity:1;stroke:#ffffff;stroke-width:4;stroke-dasharray:none;stroke-opacity:0.5;filter:url(#filter933)"
       id="path921"
       cx="23.949146"
       cy="24.047064"
       rx="18.901974"
       ry="18.792322" />
    <path
       style="fill:#ffffff;stroke-width:0.95832"
       d="m 24,12.50016 c -6.350787,0 -11.49984,5.149053 -11.49984,11.49984 0,6.350787 5.149053,11.49984 11.49984,11.49984 h 7.1874 c 0,0 1.347685,0 1.43748,-1.43748 0,-1.43748 -1.43748,-1.43748 -1.43748,-1.43748 H 24 c -4.763426,0 -8.62488,-3.861455 -8.62488,-8.62488 0,-4.763426 3.861454,-8.62488 8.62488,-8.62488 4.763809,0 8.62488,3.861071 8.62488,8.62488 v 1.43748 c 0,0.793489 -0.643991,1.43748 -1.43748,1.43748 -0.793489,0 -1.43748,-0.643991 -1.43748,-1.43748 V 24 c 0,-3.175872 -2.574048,-5.74992 -5.74992,-5.74992 -3.175872,0 -5.74992,2.574048 -5.74992,5.74992 0,3.175872 2.574048,5.74992 5.74992,5.74992 1.503604,0 2.861544,-0.590325 3.885988,-1.536187 0.819363,0.974611 2.027805,1.537145 3.301412,1.536187 2.381425,0 4.31244,-1.931015 4.31244,-4.31244 V 24 C 35.49984,17.649213 30.350787,12.50016 24,12.50016 Z m 0,8.62488 c 1.587744,0 2.87496,1.287216 2.87496,2.87496 0,1.587937 -1.287023,2.87496 -2.87496,2.87496 -1.587937,0 -2.87496,-1.287023 -2.87496,-2.87496 0,-1.587744 1.287216,-2.87496 2.87496,-2.87496 z"
       id="path4" />
  </g>
</svg>
