<?xml version="1.0" encoding="UTF-8" standalone="no"?>
<svg
   width="22"
   height="22"
   version="1.1"
   id="svg9"
   sodipodi:docname="steam_tray_mono.svg"
   inkscape:version="1.3.2 (091e20ef0f, 2023-11-25)"
   xmlns:inkscape="http://www.inkscape.org/namespaces/inkscape"
   xmlns:sodipodi="http://sodipodi.sourceforge.net/DTD/sodipodi-0.dtd"
   xmlns="http://www.w3.org/2000/svg"
   xmlns:svg="http://www.w3.org/2000/svg"
   xmlns:rdf="http://www.w3.org/1999/02/22-rdf-syntax-ns#"
   xmlns:cc="http://creativecommons.org/ns#"
   xmlns:dc="http://purl.org/dc/elements/1.1/">
  <path
     d="m 15.251309,1.209091 c -3.083547,0 -5.591312,2.5531967 -5.591312,5.6908416 0,0.025151 -3.547e-4,0.050667 9.72e-4,0.074291 L 6.0692269,12.275198 c -0.055439,-0.0031 -0.1109357,-0.005 -0.1664536,-0.0058 -0.8058408,0.0011 -1.5934316,0.243838 -2.2639645,0.697905 L 3.2510726,12.804976 1.1381479,11.919394 v 2.286347 c 0,3.345402 1.8149305,6.676444 5.0553341,6.36047 0.4814204,-0.0342 0.9530885,-0.154654 1.3931975,-0.355804 0.00418,-0.0023 0.00834,-0.0045 0.012508,-0.0068 1.4576609,-0.674333 2.3939477,-2.150773 2.3957909,-3.777946 -0.00116,-0.03587 -0.00274,-0.0717 -0.0048,-0.107521 l 5.1351456,-3.728057 c 0.04171,0.0014 0.08434,0.0019 0.126044,0.0019 3.084779,0 5.592298,-2.554398 5.592298,-5.6918433 0,-3.1377449 -2.507075,-5.6898404 -5.592298,-5.6898404 v -10e-4 z m 0,1.8992325 c 2.054844,0 3.72741,1.7021477 3.72741,3.7916594 0,2.0911129 -1.672566,3.7926111 -3.72741,3.7926111 -2.053562,0 -3.724503,-1.7014982 -3.724503,-3.7926111 0,-2.0894615 1.670988,-3.7916594 3.724503,-3.7916594 z m 0.0068,0.9364292 c -1.544286,0 -2.797971,1.2762481 -2.797971,2.8493747 0,1.5732269 1.253685,2.8483732 2.797971,2.8483732 1.545567,0 2.798908,-1.2751463 2.798908,-2.8483732 0,-1.5731266 -1.25339,-2.8493747 -2.798908,-2.8493747 z M 5.903064,13.240884 c 0.3090744,9e-6 0.6164485,0.04645 0.9121471,0.137824 0.095678,0.02994 0.1904546,0.0647 0.2847973,0.104589 0.2915958,0.123251 0.5587867,0.28725 0.7956907,0.485806 0.3948352,0.330931 0.705589,0.757862 0.9053986,1.252175 0.076086,0.188202 0.1325753,0.381429 0.1722272,0.576692 0.00297,0.01301 0.00585,0.02605 0.00867,0.03911 0.013504,0.07099 0.022083,0.142588 0.03079,0.214065 0.00513,0.03673 0.00961,0.07357 0.013469,0.110454 0.00766,0.08805 0.012099,0.17567 0.012508,0.263918 v 0.0011 C 9.0381463,18.185377 7.6343125,19.6107 5.90309,19.61023 4.754985,19.60913 3.6993172,18.970516 3.1513267,17.945567 l 1.6636001,0.696954 c 1.0824978,0.453556 2.2958865,0.03037 2.8990095,-0.943285 4.513e-4,-7.9e-4 0.00148,-0.0012 0.00189,-0.0019 0.0071,-0.01122 0.01134,-0.02479 0.018283,-0.03617 0.060662,-0.101911 0.1218559,-0.203386 0.16838,-0.316702 0.00267,-0.0065 0.00319,-0.01311 0.00577,-0.01955 0.060115,-0.146573 0.1041167,-0.295753 0.133738,-0.445729 1.88e-4,-9.9e-4 -1.859e-4,-0.0019 0,-0.003 0.030474,-0.155211 0.044731,-0.310626 0.044257,-0.465282 -0.00146,-0.465812 -0.1389057,-0.919663 -0.3896774,-1.302973 -0.00225,-0.0034 -0.00543,-0.0063 -0.0077,-0.0098 -0.080393,-0.12157 -0.1717851,-0.235907 -0.2742123,-0.341212 -0.082549,-0.08537 -0.1771975,-0.159729 -0.273255,-0.232637 -0.024266,-0.01842 -0.044179,-0.0411 -0.069273,-0.05865 -5.805e-4,-4.02e-4 -0.00132,-5.58e-4 -0.00189,-0.0011 C 6.934914,14.37017 6.7888355,14.286571 6.6305351,14.220244 L 4.7899296,13.450007 C 5.1454377,13.31222 5.5226673,13.241339 5.9031677,13.240826 Z"
     color="#000000"
     fill="url(#b)"
     stroke-width="0.529652"
     id="path25"
     style="fill:#dfdfdf;fill-opacity:1"
     sodipodi:nodetypes="csccccccsccccccsscccssssssssssccccccccccsccccccccsccsccccccccc" />
  <metadata
     id="metadata13">
    <rdf:RDF>
      <cc:Work
         rdf:about="">
        <dc:format>image/svg+xml</dc:format>
        <dc:type
           rdf:resource="http://purl.org/dc/dcmitype/StillImage" />
        <dc:title />
      </cc:Work>
    </rdf:RDF>
  </metadata>
  <sodipodi:namedview
     pagecolor="#ffffff"
     bordercolor="#666666"
     borderopacity="1"
     objecttolerance="10"
     gridtolerance="10"
     guidetolerance="10"
     inkscape:pageopacity="0"
     inkscape:pageshadow="2"
     inkscape:window-width="1541"
     inkscape:window-height="738"
     id="namedview11"
     showgrid="false"
     inkscape:zoom="37.5"
     inkscape:cx="11.146667"
     inkscape:cy="7"
     inkscape:window-x="84"
     inkscape:window-y="47"
     inkscape:window-maximized="0"
     inkscape:current-layer="svg9"
     inkscape:document-rotation="0"
     inkscape:showpageshadow="2"
     inkscape:pagecheckerboard="0"
     inkscape:deskcolor="#d1d1d1" />
  <defs
     id="defs3">
    <style
       id="current-color-scheme"
       type="text/css">
   .ColorScheme-Text { color:#dfdfdf; } .ColorScheme-Highlight { color:#4285f4; } .ColorScheme-NeutralText { color:#ff9800; } .ColorScheme-PositiveText { color:#4caf50; } .ColorScheme-NegativeText { color:#f44336; }
  </style>
  </defs>
  <path
     style="fill:currentColor"
     class="ColorScheme-Text"
     d="M 13.349609,10.990234 A 3.9999998,3.9999998 0 0 0 13.363281,11.001953 L 13.353516,11 Z"
     id="path7" />
</svg>
